<svg width="406" height="822" viewBox="0 0 406 822" fill="none" xmlns="http://www.w3.org/2000/svg">
<g clip-path="url(#clip0)">
<rect width="406" height="822" fill="#35B6FF"/>
<path d="M0 370.5C0 370.5 201.5 460.5 215 386C228.5 311.5 406 370.5 406 370.5V822H0V370.5Z" fill="white"/>
<path d="M123.208 108.875L137.625 123.292C173.45 87.4663 231.55 87.4663 267.375 123.292L281.792 108.875C238.037 65.1205 167.035 65.1205 123.208 108.875ZM180.875 166.542L202.5 188.167L224.125 166.542C212.231 154.576 192.841 154.576 180.875 166.542ZM152.042 137.708L166.458 152.125C186.353 132.23 218.647 132.23 238.542 152.125L252.958 137.708C225.134 109.884 179.938 109.884 152.042 137.708Z" fill="white"/>
<path d="M163.222 223.4L156.118 257H148.822L143.062 232.856L137.302 257H130.006L122.902 223.4H131.11L134.374 244.04L139.462 223.4H146.662L151.75 244.04L155.014 223.4H163.222ZM171.127 230.696C169.847 230.696 168.807 230.344 168.007 229.64C167.239 228.936 166.855 227.992 166.855 226.808C166.855 225.624 167.239 224.68 168.007 223.976C168.807 223.272 169.847 222.92 171.127 222.92C172.407 222.92 173.431 223.272 174.199 223.976C174.999 224.68 175.399 225.624 175.399 226.808C175.399 227.992 174.999 228.936 174.199 229.64C173.431 230.344 172.407 230.696 171.127 230.696ZM167.719 233H174.535V257H167.719V233ZM180.978 223.4H204.21V229.544H188.706V237.56H203.202V243.704H188.706V257H180.978V223.4ZM212.612 230.696C211.332 230.696 210.292 230.344 209.492 229.64C208.724 228.936 208.34 227.992 208.34 226.808C208.34 225.624 208.724 224.68 209.492 223.976C210.292 223.272 211.332 222.92 212.612 222.92C213.892 222.92 214.916 223.272 215.684 223.976C216.484 224.68 216.884 225.624 216.884 226.808C216.884 227.992 216.484 228.936 215.684 229.64C214.916 230.344 213.892 230.696 212.612 230.696ZM209.204 233H216.02V257H209.204V233ZM250.111 223.4V257H243.103L230.143 236.408V257H222.463V223.4H229.807L242.431 243.608V223.4H250.111ZM256.26 223.4H268.692C278.004 223.4 282.66 228.792 282.66 239.576C282.66 243.768 282.132 247.128 281.076 249.656C280.052 252.184 278.42 254.04 276.18 255.224C273.972 256.408 271.044 257 267.396 257H256.26V223.4ZM268.116 250.856C269.812 250.856 271.156 250.488 272.148 249.752C273.14 249.016 273.86 247.832 274.308 246.2C274.756 244.568 274.98 242.36 274.98 239.576C274.98 235.96 274.484 233.384 273.492 231.848C272.532 230.312 270.884 229.544 268.548 229.544H263.988V250.856H268.116Z" fill="white"/>
</g>
<defs>
<clipPath id="clip0">
<rect width="406" height="822" fill="white"/>
</clipPath>
</defs>
</svg>
